<svg width="17" height="20" viewBox="0 0 17 20" fill="none" xmlns="http://www.w3.org/2000/svg">
<path d="M15.9988 6.71167C14.688 7.5217 13.8783 8.91032 13.8783 10.4532C13.8783 12.189 14.9193 13.7705 16.5 14.4262C16.1916 15.4291 15.7289 16.3549 15.1506 17.2035C14.3024 18.3992 13.4157 19.6336 12.1048 19.6336C10.794 19.6336 10.4084 18.8621 8.86627 18.8621C7.36265 18.8621 6.82289 19.6721 5.58916 19.6721C4.35542 19.6721 3.50723 18.5535 2.54337 17.1649C1.27108 15.2363 0.538554 12.999 0.5 10.6461C0.5 6.82739 2.96747 4.78303 5.43494 4.78303C6.74578 4.78303 7.8253 5.63163 8.63494 5.63163C9.40602 5.63163 10.6398 4.74446 12.1048 4.74446C13.647 4.70588 15.112 5.43877 15.9988 6.71167ZM11.4108 3.1244C12.0663 2.35294 12.4133 1.38862 12.4518 0.385728C12.4518 0.27001 12.4518 0.115718 12.4133 0C11.2952 0.115718 10.2542 0.655738 9.52169 1.50434C8.86626 2.23722 8.48072 3.16297 8.44217 4.16586C8.44217 4.28158 8.44217 4.3973 8.48072 4.51302C8.55783 4.51302 8.67349 4.55159 8.7506 4.55159C9.79157 4.47445 10.7554 3.93443 11.4108 3.1244Z" fill="black"/>
</svg>
